<?xml version="1.0" standalone="no"?>
<!DOCTYPE svg PUBLIC "-//W3C//DTD SVG 20010904//EN"
 "http://www.w3.org/TR/2001/REC-SVG-20010904/DTD/svg10.dtd">
<svg version="1.0" xmlns="http://www.w3.org/2000/svg"
 width="150.00000000pt" height="60.00000000pt" viewBox="0 0 4096.000000 1638.000000"
 preserveAspectRatio="xMidYMid meet">

<g transform="translate(0.000000,1638.000000) scale(0.100000,-0.100000)"
fill="#f00" stroke="none">
<path d="M0 8190 l0 -8190 20480 0 20480 0 0 8190 0 8190 -20480 0 -20480 0 0
-8190z m4469 6888 c4 -13 255 -1608 557 -3545 302 -1938 551 -3523 554 -3523
3 0 259 1583 569 3518 309 1934 565 3527 568 3540 l5 22 1584 0 1584 0 2
-6317 3 -6316 948 6314 c521 3473 952 6318 956 6322 9 9 3296 6 3304 -3 3 -3
416 -2740 918 -6082 503 -3342 916 -6074 919 -6071 3 2 7 2739 10 6081 l5
6077 1195 3 c1560 4 1780 -5 2191 -88 1109 -223 2058 -939 2670 -2014 38 -66
69 -115 69 -107 0 8 -61 496 -135 1086 -74 589 -135 1084 -135 1098 l0 27
1260 0 c1000 0 1261 -3 1265 -12 2 -7 256 -1878 565 -4158 308 -2280 564
-4160 568 -4178 5 -24 179 1224 580 4145 315 2298 573 4181 572 4186 0 4 1580
7 3510 7 l3510 0 -2 -1257 -3 -1258 -1117 -3 -1118 -2 0 -1555 0 -1555 1120 0
1120 0 0 -1260 0 -1260 -1120 0 -1120 0 0 -1580 0 -1580 1118 -2 1117 -3 0
-1240 0 -1240 -2357 -3 -2358 -2 -1 6227 -1 6228 -988 -6220 c-544 -3421 -989
-6223 -990 -6226 0 -5 -2902 -20 -2907 -15 -2 2 -1385 8262 -1446 8635 -1 8
-2 -95 -2 -230 -1 -257 -11 -376 -51 -599 -120 -659 -430 -1328 -872 -1882
-116 -145 -374 -411 -489 -502 -40 -32 -73 -65 -73 -72 0 -8 351 -1208 780
-2668 429 -1459 780 -2658 780 -2665 0 -8 -313 -11 -1223 -11 l-1224 0 -16 58
c-8 31 -277 1056 -597 2277 -320 1221 -584 2222 -586 2224 -4 4 -502 -64 -551
-76 l-23 -5 0 -2239 0 -2239 -2370 0 c-1828 0 -2370 3 -2370 12 0 17 -279
2059 -285 2086 l-5 22 -965 0 -965 0 -4 -22 c-6 -25 -286 -2078 -286 -2091 0
-4 -1083 -6 -2407 -5 l-2408 3 -5 3289 -5 3289 -549 -3264 c-301 -1795 -551
-3276 -553 -3291 l-5 -28 -663 0 c-521 0 -664 3 -667 13 -3 6 -256 1487 -564
3290 l-559 3277 -5 -3287 -5 -3288 -1247 -3 -1248 -2 0 6905 0 6905 1580 0
1580 0 9 -22z m33071 -5638 l0 -5660 1060 0 1060 0 0 -1245 0 -1245 -2297 2
-2298 3 -3 6890 c-1 3790 0 6896 3 6903 3 9 261 12 1240 12 l1235 0 0 -5660z"/>
<path d="M19440 10410 l0 -2222 78 7 c374 33 703 197 979 490 441 465 655
1200 593 2040 -58 783 -331 1342 -805 1647 -200 130 -460 223 -675 243 -36 3
-89 8 -117 11 l-53 5 0 -2221z"/>
<path d="M13267 9854 c-104 -890 -257 -2208 -341 -2929 l-152 -1310 690 -3
c379 -1 691 0 694 3 4 4 -679 5715 -697 5819 -4 27 -67 -484 -194 -1580z"/>
</g>
</svg>
